<svg width="22" height="19" viewBox="0 0 22 19" fill="none" xmlns="http://www.w3.org/2000/svg">
<path d="M6.53432 0.800781H20.9993C21.2645 0.800781 21.5189 0.906138 21.7064 1.09367C21.894 1.28121 21.9993 1.53556 21.9993 1.80078V17.8008C21.9993 18.066 21.894 18.3204 21.7064 18.5079C21.5189 18.6954 21.2645 18.8008 20.9993 18.8008H6.53432C6.36973 18.8008 6.20768 18.7602 6.06254 18.6826C5.9174 18.6049 5.79367 18.4927 5.70232 18.3558L0.369322 10.3558C0.259683 10.1915 0.201172 9.99833 0.201172 9.80078C0.201172 9.60323 0.259683 9.41011 0.369322 9.24578L5.70232 1.24578C5.79367 1.10887 5.9174 0.996614 6.06254 0.918986C6.20768 0.841359 6.36973 0.800757 6.53432 0.800781ZM7.06932 2.80078L2.40332 9.80078L7.06932 16.8008H19.9993V2.80078H7.06932ZM12.9993 8.38678L15.8273 5.55778L17.2423 6.97278L14.4133 9.80078L17.2423 12.6288L15.8273 14.0438L12.9993 11.2148L10.1713 14.0438L8.75632 12.6288L11.5853 9.80078L8.75632 6.97278L10.1713 5.55778L12.9993 8.38678Z" fill="#A5A5A5"/>
</svg>
