<svg width="29" height="24" viewBox="0 0 29 24" fill="none" xmlns="http://www.w3.org/2000/svg">
<path d="M14.5002 0.625C10.4322 0.625 7.17469 2.49375 4.80333 4.71797C2.44708 6.92188 0.871213 9.5625 0.126074 11.3754C-0.0400716 11.7766 -0.0400716 12.2234 0.126074 12.6246C0.871213 14.4375 2.44708 17.0781 4.80333 19.282C7.17469 21.5063 10.4322 23.375 14.5002 23.375C18.5683 23.375 21.8257 21.5063 24.1971 19.282C26.5533 17.073 28.1292 14.4375 28.8794 12.6246C29.0455 12.2234 29.0455 11.7766 28.8794 11.3754C28.1292 9.5625 26.5533 6.92188 24.1971 4.71797C21.8257 2.49375 18.5683 0.625 14.5002 0.625ZM7.25021 12C7.25021 10.0606 8.01404 8.20064 9.37368 6.82928C10.7333 5.45792 12.5774 4.6875 14.5002 4.6875C16.423 4.6875 18.2671 5.45792 19.6267 6.82928C20.9864 8.20064 21.7502 10.0606 21.7502 12C21.7502 13.9394 20.9864 15.7994 19.6267 17.1707C18.2671 18.5421 16.423 19.3125 14.5002 19.3125C12.5774 19.3125 10.7333 18.5421 9.37368 17.1707C8.01404 15.7994 7.25021 13.9394 7.25021 12ZM14.5002 8.75C14.5002 10.5426 13.0552 12 11.278 12C10.9205 12 10.5782 11.9391 10.2559 11.8324C9.97903 11.741 9.6568 11.9137 9.66687 12.2082C9.68198 12.5586 9.73232 12.909 9.82798 13.2594C10.5177 15.8594 13.171 17.4031 15.7488 16.7074C18.3266 16.0117 19.8572 13.3355 19.1674 10.7355C18.6085 8.62813 16.7608 7.21133 14.7066 7.125C14.4146 7.11484 14.2434 7.43477 14.3341 7.71914C14.4398 8.04414 14.5002 8.38945 14.5002 8.75Z" fill="#646464"/>
</svg>