<svg width="35" height="35" viewBox="0 0 35 35" fill="none" xmlns="http://www.w3.org/2000/svg">
<path d="M16.4062 19.9375C21.1523 19.9375 25 15.4742 25 9.96875C25 4.46328 21.1523 0 16.4062 0C11.6602 0 7.8125 4.46328 7.8125 9.96875C7.8125 11.0279 7.9541 12.0531 8.21777 13.0104L0.341797 22.1465C0.12207 22.4014 0 22.7469 0 23.1094V27.6406C0 28.3939 0.522461 29 1.17188 29H5.07812C5.72754 29 6.25 28.3939 6.25 27.6406V25.375H8.20312C8.85254 25.375 9.375 24.7689 9.375 24.0156V21.75H11.3281C11.6406 21.75 11.9385 21.6084 12.1582 21.3535L13.7842 19.4674C14.6094 19.7732 15.4932 19.9375 16.4062 19.9375ZM18.3594 5.4375C18.8774 5.4375 19.3742 5.6762 19.7404 6.10109C20.1067 6.52597 20.3125 7.10224 20.3125 7.70312C20.3125 8.30401 20.1067 8.88028 19.7404 9.30516C19.3742 9.73005 18.8774 9.96875 18.3594 9.96875C17.8414 9.96875 17.3446 9.73005 16.9783 9.30516C16.612 8.88028 16.4062 8.30401 16.4062 7.70312C16.4062 7.10224 16.612 6.52597 16.9783 6.10109C17.3446 5.6762 17.8414 5.4375 18.3594 5.4375Z" fill="black"/>
</svg>
