<svg width="25" height="29" viewBox="0 0 25 29" fill="none" xmlns="http://www.w3.org/2000/svg">
<path d="M12.5 14.5C14.3944 14.5 16.2112 13.7362 17.5508 12.3765C18.8903 11.0169 19.6429 9.17282 19.6429 7.25C19.6429 5.32718 18.8903 3.48311 17.5508 2.12348C16.2112 0.763837 14.3944 0 12.5 0C10.6056 0 8.78878 0.763837 7.44924 2.12348C6.10969 3.48311 5.35714 5.32718 5.35714 7.25C5.35714 9.17282 6.10969 11.0169 7.44924 12.3765C8.78878 13.7362 10.6056 14.5 12.5 14.5ZM9.94978 17.2188C4.45312 17.2188 0 21.7387 0 27.3178C0 28.2467 0.742188 29 1.65737 29H23.3426C24.2578 29 25 28.2467 25 27.3178C25 21.7387 20.5469 17.2188 15.0502 17.2188H9.94978Z" fill="black"/>
</svg>
